<svg width="384" height="384" viewBox="0 0 384 384" fill="none" xmlns="http://www.w3.org/2000/svg">
<path d="M117.1 95.6644C115.367 123.096 85.7987 105.234 76.5884 98.7823C84.9576 110.099 92.6285 132.002 51.9407 124.879C62.729 139.33 55.5792 148.432 35.4555 144.486C45.0557 153.695 45.2046 172.155 15.7766 163.106C31.697 172.616 28.3148 189.73 6.58317 188.351C16.3764 193.719 32.6979 208.022 19.6377 222.293C39.6863 229.194 30.7468 245.184 22.4488 256.247C43.9955 250.661 59.746 241.152 57.8974 270.418C66.5257 266.329 84.8656 254.898 82.6566 289.87C103.146 266.004 118.443 279.557 120.942 292.299C130.573 286.287 151.184 284.284 158.286 302.616C175.529 284.901 192.894 296.975 199.421 305.226C218.379 287.554 235.195 298.555 241.339 305.899C249.333 289.187 267.46 289.896 277.671 295.621C284.528 286.453 301.211 283.869 313.54 297.897C310.168 275.96 328.49 277.432 338.072 280.91C324.156 241.615 355.962 243.522 369.447 244.488C353.922 239.199 353.165 209.348 376.933 193.968C354.296 188.293 358.478 164.996 363.398 154.057C349.331 154.692 331.339 149.883 337.525 129.188C319.314 128.033 313.489 122.569 321.11 97.897C295.983 117.263 273.398 109.708 270.161 99.8111C263.885 105.845 248.784 112.862 238.595 92.6615C224.093 109.839 208.739 100.181 206.369 90.6167C198.482 99.5838 185.37 99.9961 180.036 78.5232C181.139 94.1627 173.437 101.68 154.619 92.48C157.469 107.122 135.793 112.007 117.1 95.6644Z" fill="white" stroke="black" stroke-width="3" stroke-linecap="round" stroke-linejoin="round"/>
</svg>
