<svg width="18" height="17" viewBox="0 0 18 17" fill="none" xmlns="http://www.w3.org/2000/svg">
<path d="M14.1884 11.6848C14.1884 12.0524 13.8904 12.3503 13.5228 12.3503C13.1553 12.3503 12.8573 12.0524 12.8573 11.6848C12.8573 11.639 12.8844 11.4804 13.0852 11.1791C13.1931 11.0173 13.3377 10.8343 13.5228 10.6299C13.708 10.8343 13.8525 11.0173 13.9604 11.1791C14.1613 11.4804 14.1884 11.639 14.1884 11.6848Z" fill="#344054" stroke="black" stroke-width="1.5"/>
<path d="M7.80884 1.95483L9.05999 3.206" stroke="black" stroke-width="1.5" stroke-linecap="round"/>
<path d="M8.80977 2.95581L3.30469 8.46093L7.3084 12.4646L12.8135 6.95951L8.80977 2.95581Z" stroke="black" stroke-width="1.5" stroke-linejoin="round"/>
<path d="M4.67578 7.11035L10.678 9.08373" stroke="black" stroke-width="1.5" stroke-linecap="round"/>
<path d="M1.84473 15.2236H16" stroke="black" stroke-width="1.5" stroke-linecap="round"/>
</svg>