<svg viewBox="0 0 384 248" fill="none" xmlns="http://www.w3.org/2000/svg">
<path d="M117.1 27.6644C115.367 55.0961 85.7987 37.2342 76.5884 30.7823C84.9576 42.099 92.6285 64.002 51.9407 56.8794C62.729 71.3304 55.5792 80.4317 35.4555 76.4859C45.0557 85.6947 45.2046 104.155 15.7766 95.1055C31.697 104.616 28.3148 121.73 6.58317 120.351C16.3764 125.719 32.6979 140.022 19.6377 154.293C39.6863 161.194 30.7468 177.184 22.4488 188.247C43.9955 182.661 59.746 173.152 57.8974 202.418C66.5257 198.329 84.8656 186.898 82.6566 221.87C103.146 198.004 118.443 211.557 120.942 224.299C130.573 218.287 151.184 216.284 158.286 234.616C175.529 216.901 192.894 228.975 199.421 237.226C218.379 219.554 235.195 230.555 241.339 237.899C249.333 221.187 267.46 221.896 277.671 227.621C284.528 218.453 301.211 215.869 313.54 229.897C310.168 207.96 328.49 209.432 338.072 212.91C324.156 173.615 355.962 175.522 369.447 176.488C353.922 171.199 353.165 141.348 376.933 125.968C354.296 120.293 358.478 96.9959 363.398 86.0566C349.331 86.6921 331.339 81.8831 337.525 61.188C319.314 60.0325 313.489 54.5693 321.11 29.897C295.983 49.2631 273.398 41.7084 270.161 31.8111C263.885 37.8449 248.784 44.8621 238.595 24.6615C224.093 41.8392 208.739 32.1808 206.369 22.6167C198.482 31.5838 185.37 31.9961 180.036 10.5232C181.139 26.1627 173.437 33.6802 154.619 24.48C157.469 39.1218 135.793 44.0066 117.1 27.6644Z" fill="white" stroke="black" stroke-width="3" stroke-linecap="round" stroke-linejoin="round"/>
</svg>
