<svg width="366" height="253" viewBox="0 0 366 253" fill="none" xmlns="http://www.w3.org/2000/svg">
<path fill-rule="evenodd" clip-rule="evenodd" d="M11.3515 235.444C6.23726 234.83 2.37813 237.11 2.03669 241.953C1.60023 248.144 5.09042 250.856 11.3841 250.907C16.4983 251.52 20.8503 249.093 21.1918 244.25C21.5332 239.407 16.4657 236.057 11.3515 235.444ZM54.9726 218.936C56.1636 207.667 47.9722 199.747 35.6168 197.526C23.2613 195.305 9.88686 199.348 8.69586 210.618C7.50487 221.888 16.802 230.491 29.1575 232.712C44.0718 237.048 53.4502 233.342 54.9726 218.936ZM122.628 207.551C96.2054 223.924 72.588 206.163 72.588 198.72C57.6296 201.872 45.3729 198.72 45.3729 184.651C25.529 184.651 13.0277 176.637 15.9631 153.737C-2.04281 131.36 0.902729 119.563 10.6958 98.7796C3.02679 79.3741 9.17654 59.7589 34.8381 51.264C34.8381 25.8964 46.7766 17.4256 72.588 18.0603C96.8247 -0.570648 109.415 -1.50233 143.042 12.3355C165.498 -3.25578 181.817 0.49234 204.273 12.3355C233.654 0.913071 249.934 -2.84708 276.7 21.4952C290.398 20.9993 323.898 25.1706 333.562 66.9829C359.197 70.1888 365.906 104.383 363.565 118.504C363.565 139.686 346.933 187.514 312.255 176.637C314.362 221.977 267.775 216.138 244.218 207.551C233.244 229.304 198.128 224.152 190.666 207.551C178.375 229.305 139.541 230.677 122.628 207.551Z" fill="white"/>
<path d="M2.03669 241.953L0.5404 241.848L2.03669 241.953ZM11.3515 235.444L11.5301 233.954L11.3515 235.444ZM11.3841 250.907L11.3962 249.407C11.4518 249.407 11.5074 249.411 11.5627 249.417L11.3841 250.907ZM21.1918 244.25L22.6881 244.356L21.1918 244.25ZM35.6168 197.526L35.8822 196.049L35.6168 197.526ZM54.9726 218.936L56.4643 219.094L54.9726 218.936ZM8.69586 210.618L7.20417 210.46L8.69586 210.618ZM29.1575 232.712L29.4229 231.235C29.4746 231.245 29.5258 231.257 29.5763 231.271L29.1575 232.712ZM72.588 198.72L72.2788 197.253C72.7211 197.159 73.182 197.271 73.533 197.556C73.8841 197.84 74.088 198.268 74.088 198.72H72.588ZM122.628 207.551L121.838 206.275C122.505 205.863 123.376 206.032 123.839 206.665L122.628 207.551ZM45.3729 184.651V183.151C46.2013 183.151 46.8729 183.823 46.8729 184.651H45.3729ZM15.9631 153.737L17.1318 152.797C17.3876 153.115 17.5028 153.523 17.451 153.928L15.9631 153.737ZM10.6958 98.7796L12.0908 98.2283C12.243 98.6134 12.2292 99.0444 12.0527 99.419L10.6958 98.7796ZM34.8381 51.264H36.3381C36.3381 51.9108 35.9235 52.4847 35.3095 52.688L34.8381 51.264ZM72.588 18.0603L73.5022 19.2495C73.23 19.4587 72.8943 19.5683 72.5511 19.5598L72.588 18.0603ZM143.042 12.3355L143.897 13.5677C143.479 13.8581 142.942 13.9165 142.471 13.7227L143.042 12.3355ZM204.273 12.3355L204.817 13.7336C204.412 13.8911 203.958 13.8651 203.574 13.6623L204.273 12.3355ZM276.7 21.4952L276.755 22.9942C276.363 23.0084 275.981 22.8686 275.691 22.6049L276.7 21.4952ZM333.562 66.9829L333.376 68.4713C332.751 68.3932 332.242 67.9337 332.1 67.3207L333.562 66.9829ZM363.565 118.504H362.065C362.065 118.422 362.072 118.34 362.085 118.259L363.565 118.504ZM312.255 176.637L310.757 176.706C310.734 176.217 310.952 175.747 311.34 175.448C311.728 175.149 312.237 175.059 312.704 175.205L312.255 176.637ZM244.218 207.551L242.879 206.875C243.221 206.196 244.017 205.881 244.732 206.141L244.218 207.551ZM190.666 207.551L189.36 206.813C189.638 206.32 190.17 206.026 190.735 206.052C191.3 206.078 191.802 206.42 192.034 206.936L190.666 207.551ZM0.5404 241.848C0.740385 239.011 2.00075 236.786 4.07182 235.404C6.0981 234.053 8.73001 233.619 11.5301 233.954L11.1729 236.933C8.85874 236.656 7.00397 237.055 5.73677 237.9C4.51436 238.716 3.67443 240.052 3.53297 242.059L0.5404 241.848ZM11.372 252.406C8.05588 252.38 5.17392 251.656 3.17784 249.843C1.12827 247.98 0.301306 245.239 0.5404 241.848L3.53297 242.059C3.33561 244.858 4.03551 246.568 5.19534 247.622C6.40866 248.725 8.41864 249.383 11.3962 249.407L11.372 252.406ZM22.6881 244.356C22.4837 247.255 21.0521 249.499 18.8876 250.887C16.7629 252.25 14.0281 252.734 11.2055 252.396L11.5627 249.417C13.8543 249.692 15.8526 249.27 17.2679 248.362C18.6433 247.48 19.5584 246.089 19.6955 244.145L22.6881 244.356ZM11.5301 233.954C14.3246 234.289 17.1491 235.372 19.2655 237.098C21.3979 238.837 22.9019 241.322 22.6881 244.356L19.6955 244.145C19.8231 242.335 18.964 240.723 17.3696 239.423C15.7589 238.11 13.4926 237.211 11.1729 236.933L11.5301 233.954ZM35.8822 196.049C42.2944 197.202 47.7528 199.855 51.468 203.811C55.2106 207.796 57.1056 213.026 56.4643 219.094L53.481 218.779C54.0307 213.577 52.4255 209.213 49.2812 205.865C46.1096 202.488 41.2946 200.07 35.3514 199.002L35.8822 196.049ZM7.20417 210.46C7.87074 204.153 11.9786 199.931 17.3826 197.632C22.7458 195.352 29.4854 194.899 35.8822 196.049L35.3514 199.002C29.3927 197.931 23.2674 198.39 18.5567 200.393C13.8868 202.379 10.712 205.813 10.1876 210.776L7.20417 210.46ZM28.8921 234.188C16.1237 231.893 5.89691 222.83 7.20417 210.46L10.1876 210.776C9.11283 220.945 17.4803 229.089 29.4229 231.235L28.8921 234.188ZM56.4643 219.094C55.6713 226.598 52.7739 231.702 47.7543 234.196C42.8487 236.633 36.3212 236.357 28.7387 234.152L29.5763 231.271C36.908 233.403 42.527 233.443 46.4197 231.509C50.1986 229.632 52.7516 225.68 53.481 218.779L56.4643 219.094ZM74.088 198.72C74.088 199.278 74.3203 200.099 74.9417 201.138C75.5517 202.158 76.4799 203.291 77.7154 204.447C80.1854 206.756 83.7853 209.058 88.2089 210.655C97.02 213.836 109.047 214.202 121.838 206.275L123.418 208.826C109.787 217.273 96.7935 216.944 87.1902 213.477C82.4066 211.75 78.4507 209.241 75.6667 206.638C74.2753 205.337 73.1519 203.99 72.3671 202.678C71.5938 201.385 71.088 200.023 71.088 198.72H74.088ZM46.8729 184.651C46.8729 187.95 47.5899 190.496 48.7957 192.436C49.9975 194.37 51.7447 195.797 53.9709 196.769C58.4847 198.738 64.9209 198.803 72.2788 197.253L72.8972 200.188C65.2967 201.79 58.1253 201.854 52.7712 199.518C50.0634 198.337 47.8115 196.536 46.2478 194.02C44.688 191.511 43.8729 188.387 43.8729 184.651H46.8729ZM17.451 153.928C16.0187 165.101 18.3898 172.264 23.1466 176.682C27.9729 181.165 35.5924 183.151 45.3729 183.151V186.151C35.3095 186.151 26.7564 184.13 21.1049 178.881C15.3839 173.567 12.9721 165.273 14.4753 153.547L17.451 153.928ZM12.0527 99.419C7.15115 109.821 4.1277 117.667 4.40393 125.609C4.67804 133.49 8.22272 141.725 17.1318 152.797L14.7945 154.678C5.69761 143.372 1.71208 134.521 1.40574 125.713C1.10151 116.966 4.44735 108.521 9.33886 98.1403L12.0527 99.419ZM35.3095 52.688C22.7767 56.8368 15.21 63.6252 11.6352 71.5473C8.05375 79.4842 8.36733 88.8065 12.0908 98.2283L9.30076 99.3309C5.35524 89.3472 4.9092 79.1591 8.90074 70.3134C12.899 61.4527 21.238 54.1861 34.3667 49.84L35.3095 52.688ZM72.5511 19.5598C59.745 19.2449 50.7767 21.2136 44.9977 26.0606C39.277 30.8586 36.3381 38.7801 36.3381 51.264H33.3381C33.3381 38.3803 36.3685 29.3826 43.0699 23.762C49.713 18.1903 59.6196 16.2409 72.6249 16.5607L72.5511 19.5598ZM142.471 13.7227C125.675 6.81105 114.41 3.71603 104.413 4.51732C94.4736 5.31404 85.5527 9.98619 73.5022 19.2495L71.6738 16.871C83.86 7.50345 93.3523 2.39429 104.174 1.5269C114.938 0.664062 126.781 4.02214 143.612 10.9484L142.471 13.7227ZM203.574 13.6623C192.389 7.7637 182.937 3.99783 173.585 3.54584C164.298 3.09697 154.924 5.91187 143.897 13.5677L142.186 11.1034C153.616 3.16788 163.63 0.0611877 173.73 0.549332C183.766 1.03438 193.702 5.06416 204.973 11.0087L203.574 13.6623ZM275.691 22.6049C262.446 10.5597 251.996 5.6472 241.376 5.00081C230.661 4.34857 219.537 8.01079 204.817 13.7336L203.73 10.9375C218.391 5.23781 230.097 1.30873 241.558 2.00635C253.116 2.70984 264.188 8.08836 277.71 20.3854L275.691 22.6049ZM332.1 67.3207C327.363 46.825 316.838 35.6871 305.921 29.688C294.944 23.6554 283.442 22.7521 276.755 22.9942L276.646 19.9961C283.656 19.7424 295.753 20.6768 307.366 27.0589C319.041 33.4746 330.097 45.3285 335.023 66.6451L332.1 67.3207ZM362.085 118.259C363.205 111.506 362.163 99.7167 357.676 89.2408C353.197 78.785 345.455 69.9819 333.376 68.4713L333.748 65.4945C347.304 67.1898 355.733 77.0866 360.433 88.0597C365.125 99.0126 366.267 111.381 365.045 118.749L362.085 118.259ZM312.704 175.205C321.004 177.809 328.139 176.889 334.22 173.785C340.344 170.659 345.495 165.265 349.651 158.783C357.984 145.787 362.065 128.817 362.065 118.504H365.065C365.065 129.372 360.83 146.907 352.177 160.402C347.841 167.164 342.332 173.012 335.584 176.457C328.793 179.923 320.845 180.903 311.806 178.068L312.704 175.205ZM244.732 206.141C256.394 210.392 273.613 213.898 287.54 210.851C294.466 209.336 300.477 206.225 304.643 200.88C308.806 195.54 311.272 187.786 310.757 176.706L313.754 176.567C314.292 188.157 311.725 196.676 307.009 202.725C302.297 208.769 295.583 212.162 288.181 213.782C273.452 217.004 255.599 213.296 243.704 208.96L244.732 206.141ZM192.034 206.936C195.447 214.529 205.431 219.81 216.212 220.436C226.915 221.058 237.747 217.048 242.879 206.875L245.557 208.226C239.715 219.807 227.502 224.097 216.038 223.431C204.652 222.77 193.347 217.174 189.298 208.166L192.034 206.936ZM123.839 206.665C131.956 217.763 145.389 223.047 158.361 222.881C171.356 222.714 183.551 217.094 189.36 206.813L191.972 208.288C185.49 219.762 172.122 225.704 158.4 225.881C144.654 226.057 130.214 220.464 121.418 208.436L123.839 206.665Z" fill="black"/>
</svg>
