<svg width="454" height="335" viewBox="0 0 454 335" fill="none" xmlns="http://www.w3.org/2000/svg">
<path d="M34.0183 240.765C-3.45335 216.058 10.8591 167.511 36.5074 153.981C11.4005 123.362 46.379 95.9036 65.4473 98.1528C62.8402 61.4922 120.759 48.8609 142.402 67.632C139.44 25.9708 204.69 8.7827 228.292 44.5905C275.582 6.79337 349.073 46.5195 329.342 84.3681C345.593 66.7617 366.459 75.0683 376.98 94.9748C401.694 79.4201 449.176 97.3722 430.077 144.114C452.798 148.308 446.848 197.779 433.987 199.092C453.538 225.598 410.505 270.197 392.363 254.426C395.023 291.84 348.228 303.413 320.333 285.283C298.309 320.262 247.252 311.211 239.973 287.617C219.868 313.295 206.623 310.649 181.578 293.583C140.139 328.465 57.9509 300.213 73.4229 269.383C45.4339 279.504 24.7621 253.927 34.0183 240.765Z" fill="white"/>
<path d="M329.342 84.3681C349.073 46.5195 275.582 6.79337 228.292 44.5905C204.69 8.7827 139.44 25.9708 142.402 67.632C131.182 57.9006 110.212 56.609 92.9797 62.7301M400.363 89.6211C422.573 91.2936 443.989 110.066 430.077 144.114C452.798 148.308 446.848 197.779 433.987 199.092C447.391 217.265 431.377 243.943 414.136 253.838M33.7127 114.683C26.2881 125.018 24.3278 139.128 36.5074 153.981C10.8591 167.511 -3.45335 216.058 34.0183 240.765C28.5025 248.608 31.3302 259.841 42.2849 266.321M87.1353 298.212C110.494 312.256 154.643 316.255 181.578 293.583C206.623 310.649 219.868 313.295 239.973 287.617C247.252 311.211 298.309 320.262 320.333 285.283C336.61 295.862 359.322 296.328 374.889 287.447" stroke="black" stroke-width="3" stroke-linecap="round" stroke-linejoin="round"/>
<path d="M349.552 65.1668L372.746 14.7504M372.789 64.2022L405.586 20.9918M378.998 88.2305L418.216 55.7572" stroke="black" stroke-width="3" stroke-linecap="round" stroke-linejoin="round"/>
<path d="M96.6519 270.631L73.4577 321.047M73.415 271.595L40.6176 314.806M67.2057 247.567L27.9877 280.04" stroke="black" stroke-width="3" stroke-linecap="round" stroke-linejoin="round"/>
<path d="M96.8339 90.9825L66.8553 45.998M73.796 94.7451L35.3702 58.8105M71.0691 119.686L27.8315 95.6362" stroke="black" stroke-width="3" stroke-linecap="round" stroke-linejoin="round"/>
<path d="M364.124 270.076L394.102 315.061M387.162 266.313L425.587 302.248M389.888 241.372L433.126 265.422" stroke="black" stroke-width="3" stroke-linecap="round" stroke-linejoin="round"/>
</svg>
