<svg width="384" height="285" viewBox="0 0 384 285" fill="none" xmlns="http://www.w3.org/2000/svg">
<path fill-rule="evenodd" clip-rule="evenodd" d="M46.2445 199.88C12.2349 178.837 1.99985 147.47 1.99985 113.857C1.99985 72.4984 31.9922 36.2674 81.5228 16.066C105.547 6.26761 133.773 2 166.203 2C265.497 2 355.318 46.265 351.41 120.55C349.015 166.054 337.197 183.183 305.821 202.347C326.619 228.126 353.339 257.75 382 283C380.464 281.884 377.605 279.917 373.61 277.167C357.925 266.374 324.723 243.527 285.278 212.798C264.73 220.977 239.42 225.065 208.494 225.065C138.116 231.66 80.2799 220.94 46.2445 199.88Z" fill="white"/>
<path d="M46.2445 199.88L45.4552 201.156L46.2445 199.88ZM81.5228 16.066L80.9563 14.677L81.5228 16.066ZM351.41 120.55L349.912 120.471L351.41 120.55ZM305.821 202.347L304.653 203.289C304.382 202.952 304.269 202.516 304.343 202.09C304.417 201.665 304.67 201.292 305.039 201.067L305.821 202.347ZM382 283L382.992 281.874C383.593 282.404 383.672 283.312 383.171 283.938C382.67 284.563 381.766 284.684 381.118 284.213L382 283ZM373.61 277.167L372.759 278.403L372.759 278.403L373.61 277.167ZM285.278 212.798L284.723 211.404C285.218 211.208 285.78 211.288 286.2 211.615L285.278 212.798ZM208.494 225.065L208.354 223.571C208.401 223.567 208.448 223.565 208.494 223.565V225.065ZM0.555176 110.758C0.584778 109.93 1.27994 109.283 2.10785 109.313C2.93573 109.342 3.58289 110.038 3.55325 110.866L0.555176 110.758ZM3.88043 105.897C3.80118 106.721 3.06842 107.325 2.2438 107.246C1.41916 107.167 0.814941 106.434 0.894196 105.609L3.88043 105.897ZM1.7099 99.4694C1.84869 98.6527 2.62329 98.1031 3.44 98.2419C4.25671 98.3807 4.8063 99.1553 4.66751 99.972L1.7099 99.4694ZM5.64944 95.0898C5.46173 95.8967 4.65546 96.3986 3.84857 96.2109C3.04172 96.0232 2.53976 95.2169 2.72748 94.4101L5.64944 95.0898ZM4.34564 88.4336C4.59052 87.6422 5.4306 87.1992 6.22202 87.444C7.01343 87.6889 7.45645 88.529 7.21158 89.3204L4.34564 88.4336ZM8.82401 84.6044C8.53326 85.3801 7.6687 85.7732 6.89297 85.4825C6.11725 85.1917 5.72409 84.3272 6.01486 83.5514L8.82401 84.6044ZM8.38373 77.8375C8.72687 77.0835 9.61627 76.7504 10.3703 77.0935C11.1243 77.4366 11.4574 78.3261 11.1143 79.0801L8.38373 77.8375ZM13.3064 74.598C12.9221 75.3319 12.0156 75.6153 11.2817 75.2309C10.5479 74.8466 10.2645 73.9401 10.6488 73.2063L13.3064 74.598ZM13.6901 67.8278C14.1206 67.12 15.0433 66.8952 15.7511 67.3257C16.4589 67.7562 16.6837 68.679 16.2532 69.3867L13.6901 67.8278ZM18.958 65.1877C18.4918 65.8725 17.5587 66.0497 16.8739 65.5835C16.1891 65.1173 16.0119 64.1842 16.4781 63.4994L18.958 65.1877ZM20.1023 58.5016C20.608 57.8455 21.5499 57.7235 22.2061 58.2292C22.8622 58.735 22.9842 59.6768 22.4785 60.333L20.1023 58.5016ZM25.623 56.4465C25.0871 57.0782 24.1405 57.1559 23.5088 56.6199C22.8771 56.084 22.7994 55.1374 23.3354 54.5057L25.623 56.4465ZM27.4539 49.9097C28.0229 49.3077 28.9724 49.2811 29.5743 49.8502C30.1763 50.4193 30.203 51.3687 29.6339 51.9707L27.4539 49.9097ZM33.1488 48.409C32.5546 48.9862 31.6049 48.9724 31.0277 48.3781C30.4505 47.7839 30.4644 46.8342 31.0586 46.257L33.1488 48.409ZM35.5789 42.0776C36.2006 41.5301 37.1485 41.5902 37.696 42.2119C38.2435 42.8336 38.1834 43.7814 37.5617 44.3289L35.5789 42.0776ZM41.3894 41.0884C40.7469 41.6114 39.8021 41.5146 39.2791 40.8721C38.7561 40.2297 38.8529 39.2849 39.4953 38.7619L41.3894 41.0884ZM44.3521 34.9852C45.0171 34.4912 45.9567 34.6298 46.4507 35.2948C46.9448 35.9598 46.8062 36.8994 46.1412 37.3934L44.3521 34.9852ZM50.2205 34.4737C49.5385 34.944 48.6043 34.7724 48.134 34.0904C47.6638 33.4084 47.8354 32.4743 48.5173 32.004L50.2205 34.4737ZM53.6469 28.6188C54.3473 28.1764 55.2737 28.3856 55.7161 29.086C56.1584 29.7865 55.9492 30.7129 55.2488 31.1552L53.6469 28.6188ZM59.5399 28.5415C58.8255 28.9611 57.9063 28.7222 57.4868 28.0079C57.0672 27.2936 57.3061 26.3743 58.0204 25.9548L59.5399 28.5415ZM63.3768 22.9414C64.1061 22.5486 65.0159 22.8214 65.4087 23.5507C65.8016 24.2801 65.5288 25.1898 64.7994 25.5827L63.3768 22.9414ZM69.2589 23.2655C68.5182 23.6367 67.6169 23.3371 67.2458 22.5965C66.8747 21.8558 67.1742 20.9546 67.9149 20.5834L69.2589 23.2655ZM73.4435 17.9306C74.1964 17.5848 75.0869 17.9149 75.4326 18.6677C75.7784 19.4205 75.4483 20.3111 74.6955 20.6568L73.4435 17.9306ZM79.2952 18.6204C78.5332 18.9455 77.652 18.5913 77.3269 17.8293C77.0019 17.0673 77.3561 16.1861 78.118 15.861L79.2952 18.6204ZM83.7196 13.5812C84.4926 13.2832 85.3607 13.6683 85.6587 14.4412C85.9567 15.2142 85.5716 16.0824 84.7986 16.3804L83.7196 13.5812ZM89.3609 14.7036C88.579 14.9773 87.7233 14.5653 87.4496 13.7834C87.1759 13.0015 87.5879 12.1457 88.3698 11.8721L89.3609 14.7036ZM94.0127 10.0105C94.8039 9.76494 95.6443 10.2073 95.8899 10.9985C96.1354 11.7897 95.6931 12.6301 94.9019 12.8757L94.0127 10.0105ZM99.5683 11.5002C98.7704 11.7233 97.9429 11.2573 97.7198 10.4594C97.4969 9.66157 97.9628 8.834 98.7607 8.61099L99.5683 11.5002ZM104.505 7.10588C105.31 6.90875 106.122 7.40124 106.319 8.20587C106.516 9.0105 106.024 9.82259 105.219 10.0197L104.505 7.10588ZM109.962 8.92205C109.153 9.0986 108.354 8.58558 108.177 7.77619C108.001 6.96679 108.514 6.16752 109.323 5.99097L109.962 8.92205ZM115.139 4.81119C115.953 4.65813 116.737 5.19405 116.89 6.00822C117.043 6.82238 116.507 7.60647 115.693 7.75954L115.139 4.81119ZM120.491 6.91431C119.674 7.04882 118.902 6.49519 118.768 5.67776C118.633 4.86032 119.187 4.08862 120.004 3.95412L120.491 6.91431ZM125.867 3.06768C126.687 2.95427 127.445 3.52759 127.558 4.34822C127.671 5.16884 127.098 5.92603 126.278 6.03944L125.867 3.06768ZM131.114 5.42127C130.291 5.51806 129.546 4.92956 129.449 4.10681C129.352 3.28406 129.941 2.53861 130.763 2.44182L131.114 5.42127ZM136.655 1.81763C137.479 1.73966 138.211 2.34505 138.289 3.1698C138.367 3.99455 137.762 4.72635 136.937 4.80431L136.655 1.81763ZM141.798 4.3891C140.972 4.45227 140.252 3.83385 140.188 3.00784C140.125 2.18182 140.744 1.461 141.57 1.39783L141.798 4.3891ZM147.477 1.00695C148.304 0.960532 149.012 1.59342 149.058 2.42055C149.105 3.24768 148.472 3.95582 147.645 4.00223L147.477 1.00695ZM152.522 3.76774C151.695 3.801 150.997 3.15694 150.963 2.32918C150.93 1.50142 151.574 0.803422 152.402 0.77016L152.522 3.76774ZM158.315 0.586296C159.144 0.567906 159.83 1.22441 159.848 2.05263C159.867 2.88085 159.21 3.56717 158.382 3.58556L158.315 0.586296ZM163.27 3.51181C162.442 3.51852 161.765 2.8524 161.758 2.024C161.752 1.1956 162.418 0.518616 163.246 0.511908L163.27 3.51181ZM169.256 0.513894C170.084 0.52144 170.75 1.1991 170.742 2.02749C170.734 2.85589 170.057 3.52132 169.228 3.51377L169.256 0.513894ZM174.256 3.59774C173.427 3.5776 172.772 2.8899 172.792 2.06172C172.813 1.23354 173.5 0.578489 174.328 0.598626L174.256 3.59774ZM180.422 0.802818C181.25 0.838188 181.892 1.53782 181.857 2.36549C181.822 3.19317 181.122 3.83545 180.294 3.80008L180.422 0.802818ZM185.313 4.05331C184.486 4.00516 183.854 3.2957 183.902 2.46867C183.951 1.64165 184.66 1.01023 185.487 1.05838L185.313 4.05331ZM191.571 1.46965C192.396 1.5333 193.014 2.25448 192.951 3.08046C192.887 3.90644 192.166 4.52443 191.34 4.46079L191.571 1.46965ZM196.353 4.8869C195.529 4.8102 194.922 4.07934 194.999 3.25447C195.075 2.4296 195.806 1.82308 196.631 1.89978L196.353 4.8869ZM202.685 2.52127C203.509 2.61381 204.101 3.35619 204.008 4.17943C203.916 5.00268 203.174 5.59503 202.35 5.5025L202.685 2.52127ZM207.353 6.10613C206.532 6.00018 205.952 5.24822 206.058 4.4266C206.164 3.60498 206.916 3.02482 207.737 3.13077L207.353 6.10613ZM213.77 3.96965C214.589 4.09193 215.155 4.85527 215.032 5.67462C214.91 6.49398 214.147 7.05907 213.327 6.93679L213.77 3.96965ZM218.295 7.72101C217.478 7.58489 216.926 6.8121 217.062 5.99493C217.198 5.17776 217.971 4.62566 218.788 4.76178L218.295 7.72101ZM224.795 5.82629C225.609 5.97934 226.145 6.76343 225.992 7.5776C225.839 8.39176 225.054 8.9277 224.24 8.77464L224.795 5.82629ZM229.162 9.74474C228.35 9.57732 227.828 8.78389 227.996 7.97255C228.163 7.16122 228.957 6.63922 229.768 6.80663L229.162 9.74474ZM235.735 8.10556C236.542 8.29065 237.047 9.09529 236.861 9.90278C236.676 10.7103 235.872 11.2148 235.064 11.0297L235.735 8.10556ZM239.954 12.1987C239.151 11.9985 238.661 11.1846 238.861 10.3807C239.062 9.57684 239.875 9.08743 240.679 9.28759L239.954 12.1987ZM246.57 10.8263C247.369 11.045 247.839 11.87 247.621 12.669C247.402 13.4681 246.577 13.9386 245.778 13.7199L246.57 10.8263ZM250.622 15.0975C249.828 14.8629 249.374 14.0287 249.608 13.2341C249.843 12.4396 250.677 11.9857 251.472 12.2203L250.622 15.0975ZM257.303 14.02C258.091 14.2742 258.524 15.1194 258.27 15.9079C258.016 16.6964 257.171 17.1295 256.382 16.8753L257.303 14.02ZM261.132 18.4623C260.349 18.1914 259.934 17.3371 260.205 16.5542C260.476 15.7714 261.33 15.3564 262.113 15.6273L261.132 18.4623ZM267.867 17.7048C268.642 17.9966 269.034 18.8617 268.743 19.637C268.451 20.4123 267.586 20.8043 266.81 20.5124L267.867 17.7048ZM271.489 22.3354C270.72 22.0256 270.349 21.1516 270.658 20.3833C270.968 19.615 271.842 19.2432 272.611 19.553L271.489 22.3354ZM278.233 21.9151C278.992 22.2471 279.339 23.1316 279.006 23.8906C278.674 24.6495 277.79 24.9956 277.031 24.6636L278.233 21.9151ZM281.607 26.7348C280.857 26.3835 280.533 25.4906 280.884 24.7403C281.236 23.99 282.129 23.6666 282.879 24.0179L281.607 26.7348ZM288.377 26.7C289.116 27.0753 289.41 27.9782 289.035 28.7168C288.66 29.4554 287.757 29.7499 287.018 29.3746L288.377 26.7ZM291.448 31.7036C290.72 31.3077 290.451 30.3968 290.847 29.6691C291.243 28.9414 292.154 28.6725 292.881 29.0684L291.448 31.7036ZM298.194 32.0817C298.907 32.5033 299.143 33.4232 298.722 34.1363C298.3 34.8494 297.38 35.0857 296.667 34.664L298.194 32.0817ZM300.95 37.2875C300.25 36.8435 300.043 35.9166 300.487 35.2172C300.931 34.5178 301.858 34.3107 302.557 34.7547L300.95 37.2875ZM307.664 38.1401C308.345 38.6117 308.514 39.5462 308.043 40.2272C307.571 40.9083 306.637 41.078 305.956 40.6063L307.664 38.1401ZM310.01 43.5212C309.346 43.0257 309.21 42.0858 309.705 41.4219C310.201 40.758 311.141 40.6215 311.805 41.117L310.01 43.5212ZM316.63 44.8891C317.27 45.4141 317.364 46.3592 316.839 47C316.314 47.6408 315.369 47.7347 314.728 47.2097L316.63 44.8891ZM318.534 50.4563C317.915 49.906 317.859 48.9578 318.409 48.3387C318.96 47.7195 319.908 47.6637 320.527 48.214L318.534 50.4563ZM325.014 52.4107C325.604 52.9921 325.611 53.9418 325.03 54.532C324.449 55.1222 323.499 55.1293 322.909 54.5479L325.014 52.4107ZM326.381 58.1255C325.817 57.5179 325.853 56.5689 326.461 56.0057C327.069 55.4426 328.018 55.4786 328.581 56.0861L326.381 58.1255ZM332.63 60.713C333.157 61.3521 333.066 62.2975 332.427 62.8246C331.788 63.3517 330.842 63.2609 330.315 62.6218L332.63 60.713ZM333.379 66.5345C332.885 65.8694 333.024 64.9299 333.689 64.436C334.355 63.9422 335.294 64.081 335.788 64.7462L333.379 66.5345ZM339.3 69.8065C339.75 70.5022 339.55 71.4308 338.855 71.8807C338.159 72.3306 337.231 72.1314 336.781 71.4358L339.3 69.8065ZM339.364 75.6861C338.954 74.9662 339.205 74.0503 339.925 73.6404C340.645 73.2305 341.561 73.4818 341.971 74.2017L339.364 75.6861ZM344.833 79.6654C345.192 80.4124 344.877 81.3083 344.13 81.6665C343.383 82.0248 342.487 81.7096 342.128 80.9627L344.833 79.6654ZM344.138 85.498C343.825 84.7307 344.194 83.8555 344.961 83.5432C345.729 83.2308 346.604 83.5996 346.916 84.3669L344.138 85.498ZM349.03 90.1658C349.285 90.9541 348.852 91.7996 348.063 92.0541C347.275 92.3086 346.43 91.8759 346.175 91.0875L349.03 90.1658ZM347.55 95.8518C347.346 95.0491 347.83 94.2324 348.633 94.0277C349.436 93.823 350.253 94.3079 350.457 95.1106L347.55 95.8518ZM351.757 101.149C351.901 101.965 351.356 102.743 350.54 102.886C349.725 103.03 348.947 102.486 348.803 101.67L351.757 101.149ZM349.512 106.582C349.419 105.759 350.011 105.016 350.834 104.923C351.658 104.83 352.4 105.422 352.493 106.245L349.512 106.582ZM352.963 112.394C352.996 113.222 352.352 113.92 351.524 113.953C350.696 113.986 349.998 113.342 349.965 112.514L352.963 112.394ZM350.018 117.469C350.033 116.641 350.717 115.981 351.545 115.996C352.374 116.012 353.033 116.695 353.018 117.524L350.018 117.469ZM352.732 123.654C352.679 124.481 351.966 125.108 351.139 125.056C350.313 125.003 349.685 124.29 349.738 123.463L352.732 123.654ZM349.373 128.402C349.443 127.577 350.168 126.964 350.994 127.034C351.819 127.104 352.432 127.83 352.362 128.656L349.373 128.402ZM351.762 134.68C351.667 135.503 350.923 136.093 350.1 135.998C349.277 135.903 348.687 135.159 348.782 134.336L351.762 134.68ZM348.143 139.235C348.263 138.415 349.025 137.848 349.844 137.968C350.664 138.088 351.231 138.849 351.111 139.669L348.143 139.235ZM350.106 145.652C349.95 146.466 349.165 146.999 348.351 146.843C347.537 146.688 347.004 145.902 347.16 145.088L350.106 145.652ZM346.131 149.901C346.323 149.095 347.131 148.597 347.937 148.788C348.743 148.98 349.242 149.788 349.05 150.594L346.131 149.901ZM347.467 156.47C347.225 157.262 346.387 157.709 345.595 157.468C344.802 157.227 344.356 156.388 344.597 155.596L347.467 156.47ZM343.028 160.246C343.318 159.47 344.181 159.075 344.958 159.364C345.734 159.653 346.129 160.516 345.84 161.293L343.028 160.246ZM343.475 166.931C343.122 167.681 342.229 168.003 341.479 167.651C340.73 167.298 340.408 166.405 340.76 165.655L343.475 166.931ZM338.519 169.992C338.927 169.271 339.842 169.018 340.563 169.426C341.284 169.834 341.538 170.749 341.129 171.47L338.519 169.992ZM337.861 176.659C337.387 177.338 336.452 177.504 335.773 177.03C335.093 176.556 334.927 175.621 335.401 174.942L337.861 176.659ZM332.456 178.832C332.981 178.191 333.926 178.097 334.567 178.622C335.208 179.147 335.302 180.092 334.777 180.733L332.456 178.832ZM330.697 185.295C330.119 185.889 329.169 185.902 328.575 185.324C327.982 184.746 327.969 183.797 328.546 183.203L330.697 185.295ZM325.018 186.605C325.631 186.048 326.58 186.095 327.137 186.708C327.693 187.322 327.647 188.271 327.033 188.827L325.018 186.605ZM322.39 192.769C321.742 193.286 320.798 193.18 320.282 192.532C319.765 191.884 319.872 190.941 320.519 190.424L322.39 192.769ZM316.603 193.407C317.273 192.919 318.211 193.066 318.699 193.735C319.187 194.405 319.04 195.343 318.371 195.831L316.603 193.407ZM313.404 199.293C312.715 199.753 311.784 199.568 311.324 198.879C310.863 198.19 311.049 197.258 311.738 196.798L313.404 199.293ZM307.574 199.495C308.275 199.054 309.201 199.265 309.643 199.966C310.084 200.667 309.873 201.593 309.172 202.034L307.574 199.495ZM308.891 203.753C309.414 204.396 309.316 205.341 308.674 205.864C308.031 206.386 307.086 206.289 306.564 205.647L308.891 203.753ZM309.766 209.557C309.239 208.918 309.33 207.973 309.969 207.446C310.609 206.919 311.554 207.01 312.081 207.649L309.766 209.557ZM315.946 212.299C316.478 212.934 316.395 213.88 315.76 214.412C315.125 214.944 314.179 214.861 313.647 214.226L315.946 212.299ZM316.911 218.095C316.375 217.463 316.452 216.517 317.083 215.981C317.715 215.444 318.661 215.521 319.198 216.153L316.911 218.095ZM323.129 220.745C323.67 221.372 323.6 222.319 322.973 222.86C322.346 223.401 321.399 223.332 320.858 222.705L323.129 220.745ZM324.175 226.523C323.63 225.9 323.693 224.952 324.317 224.406C324.94 223.861 325.888 223.924 326.433 224.548L324.175 226.523ZM330.434 229.084C330.984 229.703 330.929 230.651 330.31 231.202C329.691 231.752 328.742 231.697 328.192 231.077L330.434 229.084ZM331.565 234.845C331.01 234.23 331.06 233.281 331.675 232.726C332.29 232.172 333.239 232.221 333.793 232.836L331.565 234.845ZM337.861 237.31C338.421 237.921 338.38 238.87 337.769 239.43C337.158 239.989 336.209 239.948 335.65 239.338L337.861 237.31ZM339.082 243.055C338.518 242.448 338.552 241.499 339.159 240.935C339.765 240.37 340.714 240.405 341.279 241.012L339.082 243.055ZM345.415 245.42C345.984 246.022 345.958 246.971 345.357 247.541C344.755 248.11 343.806 248.084 343.236 247.483L345.415 245.42ZM346.728 251.145C346.154 250.548 346.173 249.598 346.771 249.024C347.368 248.45 348.318 248.469 348.892 249.066L346.728 251.145ZM353.099 253.406C353.679 253.998 353.669 254.947 353.077 255.527C352.485 256.106 351.535 256.096 350.955 255.504L353.099 253.406ZM354.51 259.107C353.926 258.52 353.928 257.57 354.516 256.986C355.103 256.402 356.053 256.404 356.637 256.992L354.51 259.107ZM360.919 261.256C361.509 261.838 361.516 262.788 360.934 263.378C360.353 263.967 359.403 263.974 358.813 263.393L360.919 261.256ZM362.432 266.931C361.838 266.355 361.823 265.405 362.399 264.81C362.976 264.215 363.926 264.2 364.52 264.777L362.432 266.931ZM368.881 268.96C369.482 269.53 369.507 270.48 368.937 271.08C368.367 271.681 367.417 271.706 366.816 271.136L368.881 268.96ZM370.504 274.604C369.898 274.039 369.865 273.09 370.429 272.484C370.994 271.878 371.943 271.844 372.549 272.409L370.504 274.604ZM376.993 276.502C377.606 277.059 377.65 278.008 377.093 278.621C376.535 279.233 375.586 279.278 374.974 278.72L376.993 276.502ZM378.735 282.11C378.117 281.559 378.063 280.61 378.614 279.992C379.166 279.374 380.114 279.32 380.732 279.871L378.735 282.11ZM378.867 282.62C378.188 282.146 378.021 281.211 378.495 280.532C378.969 279.852 379.904 279.686 380.583 280.16L378.867 282.62ZM376.757 277.513C377.439 277.983 377.611 278.917 377.141 279.599C376.672 280.281 375.738 280.453 375.055 279.983L376.757 277.513ZM370.315 276.721C369.633 276.251 369.461 275.317 369.931 274.635C370.401 273.952 371.335 273.78 372.017 274.25L370.315 276.721ZM367.919 271.424C368.601 271.895 368.772 272.829 368.301 273.511C367.83 274.192 366.896 274.363 366.214 273.892L367.919 271.424ZM361.317 270.5C360.637 270.028 360.468 269.093 360.941 268.413C361.413 267.732 362.348 267.564 363.029 268.036L361.317 270.5ZM358.952 265.198C359.631 265.672 359.797 266.607 359.323 267.286C358.849 267.966 357.914 268.132 357.235 267.658L358.952 265.198ZM352.348 264.235C351.67 263.759 351.507 262.823 351.983 262.145C352.459 261.467 353.395 261.304 354.073 261.78L352.348 264.235ZM350.005 258.914C350.681 259.392 350.842 260.328 350.364 261.004C349.886 261.681 348.95 261.842 348.274 261.364L350.005 258.914ZM343.41 257.915C342.735 257.435 342.577 256.498 343.057 255.823C343.538 255.148 344.474 254.99 345.149 255.471L343.41 257.915ZM341.112 252.589C341.785 253.072 341.94 254.009 341.458 254.682C340.976 255.356 340.039 255.511 339.366 255.029L341.112 252.589ZM334.511 251.543C333.839 251.058 333.687 250.121 334.171 249.449C334.656 248.777 335.593 248.625 336.265 249.109L334.511 251.543ZM332.249 246.206C332.92 246.692 333.069 247.63 332.583 248.301C332.097 248.971 331.159 249.121 330.488 248.634L332.249 246.206ZM325.656 245.118C324.987 244.63 324.84 243.691 325.329 243.022C325.817 242.353 326.756 242.207 327.425 242.696L325.656 245.118ZM323.424 239.765C324.092 240.256 324.235 241.195 323.745 241.862C323.254 242.53 322.316 242.674 321.648 242.183L323.424 239.765ZM316.845 238.642C316.179 238.149 316.039 237.21 316.532 236.544C317.024 235.878 317.964 235.738 318.63 236.23L316.845 238.642ZM314.639 233.269C315.303 233.763 315.441 234.703 314.946 235.367C314.452 236.032 313.512 236.17 312.847 235.675L314.639 233.269ZM308.071 232.106C307.408 231.609 307.274 230.669 307.771 230.006C308.268 229.343 309.208 229.209 309.871 229.706L308.071 232.106ZM305.905 226.722C306.566 227.221 306.697 228.161 306.198 228.823C305.699 229.484 304.759 229.615 304.097 229.116L305.905 226.722ZM299.336 225.51C298.677 225.009 298.549 224.068 299.05 223.408C299.552 222.749 300.493 222.621 301.152 223.122L299.336 225.51ZM297.203 220.109C297.861 220.613 297.986 221.554 297.482 222.212C296.979 222.87 296.038 222.995 295.38 222.492L297.203 220.109ZM290.651 218.86C289.995 218.354 289.873 217.412 290.379 216.756C290.885 216.1 291.826 215.978 292.482 216.484L290.651 218.86ZM288.556 213.447C289.211 213.955 289.33 214.897 288.822 215.552C288.314 216.206 287.372 216.325 286.717 215.817L288.556 213.447ZM282.959 215.298C282.182 215.587 281.319 215.191 281.03 214.415C280.741 213.638 281.137 212.775 281.913 212.486L282.959 215.298ZM277.172 214.152C277.958 213.891 278.807 214.318 279.067 215.104C279.328 215.89 278.902 216.739 278.115 217L277.172 214.152ZM272.235 218.815C271.439 219.044 270.608 218.583 270.379 217.787C270.151 216.991 270.611 216.16 271.408 215.932L272.235 218.815ZM266.548 217.243C267.351 217.039 268.167 217.526 268.37 218.329C268.574 219.132 268.087 219.948 267.284 220.151L266.548 217.243ZM261.301 221.553C260.491 221.727 259.693 221.213 259.518 220.403C259.343 219.593 259.858 218.795 260.668 218.62L261.301 221.553ZM255.728 219.616C256.543 219.463 257.327 219.999 257.479 220.814C257.632 221.628 257.096 222.412 256.282 222.565L255.728 219.616ZM250.231 223.604C249.412 223.732 248.645 223.172 248.517 222.353C248.389 221.535 248.949 220.767 249.768 220.64L250.231 223.604ZM244.776 221.359C245.597 221.25 246.351 221.828 246.46 222.649C246.568 223.471 245.991 224.224 245.169 224.333L244.776 221.359ZM239.077 225.056C238.253 225.143 237.515 224.546 237.428 223.722C237.341 222.898 237.938 222.159 238.762 222.073L239.077 225.056ZM233.737 222.55C234.562 222.48 235.288 223.093 235.358 223.918C235.428 224.744 234.816 225.47 233.991 225.54L233.737 222.55ZM227.877 225.988C227.05 226.039 226.338 225.41 226.287 224.583C226.236 223.757 226.864 223.045 227.691 222.994L227.877 225.988ZM222.645 223.261C223.473 223.224 224.174 223.866 224.21 224.693C224.247 225.521 223.606 226.221 222.778 226.258L222.645 223.261ZM216.658 226.467C215.83 226.487 215.142 225.832 215.122 225.004C215.102 224.176 215.757 223.488 216.585 223.468L216.658 226.467ZM211.529 223.551C212.358 223.544 213.035 224.209 213.042 225.038C213.05 225.866 212.384 226.544 211.556 226.551L211.529 223.551ZM205.594 226.833C204.769 226.905 204.042 226.294 203.97 225.469C203.898 224.643 204.509 223.916 205.334 223.844L205.594 226.833ZM200.317 224.253C201.143 224.191 201.863 224.809 201.926 225.635C201.989 226.461 201.37 227.182 200.544 227.245L200.317 224.253ZM194.476 227.665C193.649 227.717 192.937 227.088 192.885 226.261C192.833 225.434 193.462 224.722 194.289 224.671L194.476 227.665ZM189.264 224.956C190.092 224.913 190.796 225.55 190.839 226.377C190.881 227.205 190.244 227.91 189.417 227.952L189.264 224.956ZM183.336 228.218C182.508 228.249 181.812 227.602 181.782 226.774C181.751 225.947 182.398 225.251 183.225 225.22L183.336 228.218ZM178.187 225.375C179.015 225.355 179.703 226.01 179.724 226.838C179.744 227.666 179.089 228.354 178.261 228.374L178.187 225.375ZM172.175 228.48C171.347 228.488 170.669 227.823 170.661 226.995C170.652 226.167 171.317 225.488 172.146 225.48L172.175 228.48ZM167.109 225.499C167.938 225.501 168.607 226.174 168.605 227.003C168.603 227.831 167.93 228.501 167.101 228.499L167.109 225.499ZM161.014 228.435C160.186 228.42 159.526 227.736 159.542 226.908C159.557 226.079 160.24 225.42 161.069 225.435L161.014 228.435ZM156.037 225.31C156.865 225.336 157.515 226.029 157.489 226.857C157.463 227.685 156.77 228.335 155.942 228.308L156.037 225.31ZM149.858 228.066C149.03 228.026 148.392 227.323 148.432 226.495C148.472 225.668 149.175 225.03 150.002 225.069L149.858 228.066ZM144.979 224.792C145.806 224.843 146.434 225.556 146.383 226.382C146.331 227.209 145.619 227.838 144.792 227.786L144.979 224.792ZM138.716 227.353C137.89 227.287 137.274 226.564 137.341 225.738C137.407 224.913 138.13 224.297 138.956 224.363L138.716 227.353ZM133.946 223.924C134.77 224.002 135.375 224.735 135.296 225.559C135.218 226.384 134.485 226.989 133.661 226.91L133.946 223.924ZM127.6 226.274C126.777 226.18 126.186 225.436 126.28 224.613C126.374 223.79 127.118 223.199 127.941 223.294L127.6 226.274ZM122.951 222.681C123.772 222.788 124.351 223.542 124.243 224.363C124.135 225.184 123.382 225.763 122.56 225.655L122.951 222.681ZM116.524 224.8C115.705 224.676 115.142 223.911 115.266 223.092C115.391 222.273 116.156 221.71 116.975 221.834L116.524 224.8ZM112.013 221.034C112.829 221.173 113.378 221.948 113.239 222.765C113.1 223.582 112.325 224.131 111.508 223.991L112.013 221.034ZM105.509 222.899C104.695 222.742 104.164 221.954 104.321 221.141C104.479 220.328 105.266 219.796 106.079 219.954L105.509 222.899ZM101.157 218.95C101.967 219.124 102.483 219.921 102.309 220.731C102.135 221.541 101.338 222.057 100.528 221.883L101.157 218.95ZM94.5819 220.532C93.7765 220.338 93.2806 219.528 93.4744 218.723C93.6682 217.917 94.4782 217.421 95.2837 217.615L94.5819 220.532ZM90.4169 216.388C91.2179 216.599 91.6958 217.42 91.4843 218.221C91.2729 219.022 90.4521 219.5 89.6512 219.288L90.4169 216.388ZM83.7701 217.648C82.9753 217.414 82.5207 216.581 82.7545 215.786C82.9883 214.991 83.8222 214.536 84.6169 214.77L83.7701 217.648ZM79.8199 213.294C80.6086 213.548 81.0423 214.393 80.7887 215.181C80.5351 215.97 79.6902 216.404 78.9015 216.15L79.8199 213.294ZM73.1101 214.186C72.33 213.907 71.9236 213.049 72.2024 212.269C72.4812 211.489 73.3396 211.082 74.1197 211.361L73.1101 214.186ZM69.4281 209.609C70.1999 209.91 70.5815 210.78 70.2804 211.552C69.9793 212.323 69.1096 212.705 68.3378 212.404L69.4281 209.609ZM62.6807 210.076C61.9207 209.747 61.5718 208.863 61.9015 208.103C62.2312 207.343 63.1145 206.994 63.8745 207.324L62.6807 210.076ZM59.3146 205.255C60.0631 205.61 60.3819 206.505 60.0267 207.253C59.6715 208.002 58.7769 208.321 58.0284 207.965L59.3146 205.255ZM52.5546 205.22C51.8226 204.832 51.5437 203.924 51.9317 203.192C52.3196 202.46 53.2275 202.181 53.9595 202.569L52.5546 205.22ZM49.5934 200.142C50.309 200.56 50.5508 201.478 50.1335 202.194C49.7161 202.909 48.7976 203.151 48.082 202.734L49.5934 200.142ZM42.8199 199.474C42.1279 199.019 41.9361 198.089 42.3914 197.397C42.8468 196.705 43.777 196.513 44.4691 196.968L42.8199 199.474ZM40.3123 194.086C40.9813 194.575 41.1275 195.514 40.6388 196.183C40.1501 196.851 39.2117 196.998 38.5428 196.509L40.3123 194.086ZM33.6179 192.673C32.9807 192.143 32.8934 191.197 33.4229 190.56C33.9524 189.923 34.8981 189.836 35.5353 190.365L33.6179 192.673ZM31.738 187.03C32.3449 187.593 32.3799 188.543 31.816 189.149C31.2522 189.756 30.303 189.791 29.6961 189.227L31.738 187.03ZM25.2606 184.813C24.6942 184.208 24.7251 183.259 25.3297 182.693C25.9342 182.126 26.8834 182.157 27.4498 182.762L25.2606 184.813ZM24.1178 178.986C24.647 179.623 24.5594 180.569 23.9221 181.098C23.2848 181.628 22.3391 181.54 21.8098 180.903L24.1178 178.986ZM17.9855 175.939C17.5043 175.265 17.661 174.328 18.3354 173.847C19.0097 173.366 19.9465 173.522 20.4276 174.197L17.9855 175.939ZM17.6285 170.006C18.0672 170.709 17.8533 171.634 17.1506 172.073C16.4479 172.512 15.5226 172.298 15.0838 171.595L17.6285 170.006ZM11.9632 166.164C11.577 165.431 11.8581 164.523 12.591 164.137C13.3239 163.751 14.2311 164.032 14.6173 164.765L11.9632 166.164ZM12.4025 160.238C12.7443 160.993 12.4097 161.882 11.6551 162.224C10.9005 162.565 10.0116 162.231 9.6698 161.476L12.4025 160.238ZM7.2868 155.689C6.99774 154.913 7.39276 154.049 8.16913 153.76C8.9455 153.471 9.80917 153.866 10.0982 154.642L7.2868 155.689ZM8.46793 149.865C8.71414 150.656 8.27249 151.497 7.48151 151.743C6.69052 151.989 5.8497 151.548 5.60349 150.757L8.46793 149.865ZM3.93359 144.735C3.73663 143.931 4.22928 143.119 5.03394 142.922C5.83862 142.725 6.6506 143.218 6.84756 144.022L3.93359 144.735ZM5.76462 139.082C5.92279 139.895 5.39178 140.683 4.57858 140.841C3.76541 140.999 2.97797 140.468 2.81979 139.655L5.76462 139.082ZM1.79504 133.504C1.68039 132.683 2.25256 131.925 3.07303 131.811C3.89349 131.696 4.65152 132.268 4.76617 133.089L1.79504 133.504ZM4.16864 128.055C4.24973 128.88 3.64709 129.614 2.82263 129.695C1.9982 129.776 1.26413 129.173 1.18304 128.349L4.16864 128.055ZM0.71524 122.143C0.671204 121.316 1.30612 120.61 2.13339 120.566C2.96063 120.522 3.66696 121.156 3.711 121.984L0.71524 122.143ZM3.52869 116.906C3.54449 117.735 2.88586 118.419 2.05759 118.435C1.22931 118.451 0.545044 117.792 0.529236 116.964L3.52869 116.906ZM0.499847 113.857C0.499847 112.821 0.518341 111.788 0.555176 110.758L3.55325 110.866C3.5177 111.859 3.49985 112.856 3.49985 113.857H0.499847ZM0.894196 105.609C1.09241 103.548 1.36475 101.5 1.7099 99.4694L4.66751 99.972C4.33447 101.932 4.07169 103.907 3.88043 105.897L0.894196 105.609ZM2.72748 94.4101C3.19516 92.3997 3.73499 90.4071 4.34564 88.4336L7.21158 89.3204C6.62192 91.2261 6.1008 93.1497 5.64944 95.0898L2.72748 94.4101ZM6.01486 83.5514C6.73645 81.6262 7.52655 79.7211 8.38373 77.8375L11.1143 79.0801C10.2851 80.9021 9.5213 82.744 8.82401 84.6044L6.01486 83.5514ZM10.6488 73.2063C11.5993 71.3911 12.6136 69.5978 13.6901 67.8278L16.2532 69.3867C15.2095 71.1029 14.2268 72.8404 13.3064 74.598L10.6488 73.2063ZM16.4781 63.4994C17.6283 61.8099 18.8368 60.1436 20.1023 58.5016L22.4785 60.333C21.2483 61.9291 20.0744 63.5477 18.958 65.1877L16.4781 63.4994ZM23.3354 54.5057C24.6556 52.9495 26.0288 51.4172 27.4539 49.9097L29.6339 51.9707C28.2451 53.4397 26.9079 54.932 25.623 56.4465L23.3354 54.5057ZM31.0586 46.257C32.5181 44.8395 34.0252 43.446 35.5789 42.0776L37.5617 44.3289C36.0439 45.6657 34.5727 47.026 33.1488 48.409L31.0586 46.257ZM39.4953 38.7619C41.0717 37.4785 42.6909 36.2194 44.3521 34.9852L46.1412 37.3934C44.515 38.6015 42.9308 39.8335 41.3894 41.0884L39.4953 38.7619ZM48.5173 32.004C50.1889 30.8513 51.899 29.7227 53.6469 28.6188L55.2488 31.1552C53.5345 32.2379 51.8582 33.3443 50.2205 34.4737L48.5173 32.004ZM58.0204 25.9548C59.7713 24.9263 61.557 23.9216 63.3768 22.9414L64.7994 25.5827C63.0118 26.5455 61.2584 27.5321 59.5399 28.5415L58.0204 25.9548ZM67.9149 20.5834C69.7267 19.6755 71.5698 18.791 73.4435 17.9306L74.6955 20.6568C72.8523 21.5033 71.0399 22.3731 69.2589 23.2655L67.9149 20.5834ZM78.118 15.861C79.057 15.4605 80.0031 15.0658 80.9563 14.677L82.0892 17.4549C81.1507 17.8377 80.2194 18.2262 79.2952 18.6204L78.118 15.861ZM80.9563 14.677C81.8715 14.3038 82.7926 13.9385 83.7196 13.5812L84.7986 16.3804C83.8895 16.7308 82.9864 17.089 82.0892 17.4549L80.9563 14.677ZM88.3698 11.8721C90.228 11.2217 92.1089 10.6013 94.0127 10.0105L94.9019 12.8757C93.0316 13.4561 91.1846 14.0653 89.3609 14.7036L88.3698 11.8721ZM98.7607 8.61099C100.654 8.08181 102.569 7.58028 104.505 7.10588L105.219 10.0197C103.313 10.4866 101.43 10.98 99.5683 11.5002L98.7607 8.61099ZM109.323 5.99097C111.241 5.57259 113.18 5.17948 115.139 4.81119L115.693 7.75954C113.762 8.12261 111.852 8.50998 109.962 8.92205L109.323 5.99097ZM120.004 3.95412C121.939 3.63574 123.893 3.3404 125.867 3.06768L126.278 6.03944C124.329 6.30872 122.4 6.60022 120.491 6.91431L120.004 3.95412ZM130.763 2.44182C132.709 2.21291 134.673 2.00498 136.655 1.81763L136.937 4.80431C134.977 4.98957 133.036 5.1951 131.114 5.42127L130.763 2.44182ZM141.57 1.39783C143.522 1.24858 145.491 1.1184 147.477 1.00695L147.645 4.00223C145.678 4.11258 143.73 4.24143 141.798 4.3891L141.57 1.39783ZM152.402 0.77016C154.357 0.691602 156.328 0.630419 158.315 0.586296L158.382 3.58556C156.412 3.62929 154.459 3.68992 152.522 3.76774L152.402 0.77016ZM163.246 0.511908C164.228 0.503957 165.214 0.5 166.203 0.5V3.5C165.222 3.5 164.244 3.50393 163.27 3.51181L163.246 0.511908ZM166.203 0.5C167.222 0.5 168.239 0.504637 169.256 0.513894L169.228 3.51377C168.221 3.5046 167.213 3.5 166.203 3.5V0.5ZM174.328 0.598626C176.365 0.648141 178.396 0.716246 180.422 0.802818L180.294 3.80008C178.287 3.7143 176.274 3.64681 174.256 3.59774L174.328 0.598626ZM185.487 1.05838C187.521 1.1768 189.55 1.31394 191.571 1.46965L191.34 4.46079C189.338 4.30652 187.329 4.17065 185.313 4.05331L185.487 1.05838ZM196.631 1.89978C198.657 2.08818 200.676 2.29539 202.685 2.52127L202.35 5.5025C200.36 5.27877 198.361 5.07353 196.353 4.8869L196.631 1.89978ZM207.737 3.13077C209.758 3.39138 211.769 3.67105 213.77 3.96965L213.327 6.93679C211.346 6.64114 209.355 6.36421 207.353 6.10613L207.737 3.13077ZM218.788 4.76178C220.802 5.09724 222.804 5.45212 224.795 5.82629L224.24 8.77464C222.271 8.40435 220.288 8.05309 218.295 7.72101L218.788 4.76178ZM229.768 6.80663C231.77 7.21983 233.76 7.65285 235.735 8.10556L235.064 11.0297C233.111 10.5819 231.143 10.1536 229.162 9.74474L229.768 6.80663ZM240.679 9.28759C242.659 9.7804 244.622 10.2934 246.57 10.8263L245.778 13.7199C243.853 13.1931 241.912 12.686 239.954 12.1987L240.679 9.28759ZM251.472 12.2203C253.434 12.7995 255.378 13.3994 257.303 14.02L256.382 16.8753C254.481 16.2624 252.561 15.6698 250.622 15.0975L251.472 12.2203ZM262.113 15.6273C264.052 16.2983 265.97 16.9909 267.867 17.7048L266.81 20.5124C264.939 19.8082 263.046 19.1247 261.132 18.4623L262.113 15.6273ZM272.611 19.553C274.509 20.3183 276.383 21.1057 278.233 21.9151L277.031 24.6636C275.208 23.8661 273.36 23.09 271.489 22.3354L272.611 19.553ZM282.879 24.0179C284.739 24.8889 286.572 25.783 288.377 26.7L287.018 29.3746C285.243 28.4725 283.438 27.5925 281.607 26.7348L282.879 24.0179ZM292.881 29.0684C294.684 30.0489 296.455 31.0534 298.194 32.0817L296.667 34.664C294.959 33.6543 293.219 32.6674 291.448 31.7036L292.881 29.0684ZM302.557 34.7547C304.295 35.858 305.998 36.9865 307.664 38.1401L305.956 40.6063C304.324 39.4762 302.655 38.3698 300.95 37.2875L302.557 34.7547ZM311.805 41.117C313.454 42.3481 315.063 43.6055 316.63 44.8891L314.728 47.2097C313.198 45.9555 311.624 44.7259 310.01 43.5212L311.805 41.117ZM320.527 48.214C322.07 49.5853 323.566 50.9843 325.014 52.4107L322.909 54.5479C321.498 53.1584 320.039 51.7944 318.534 50.4563L320.527 48.214ZM328.581 56.0861C329.984 57.5997 331.334 59.1421 332.63 60.713L330.315 62.6218C329.057 61.0966 327.745 59.5977 326.381 58.1255L328.581 56.0861ZM335.788 64.7462C337.018 66.4034 338.19 68.0903 339.3 69.8065L336.781 71.4358C335.707 69.775 334.572 68.1411 333.379 66.5345L335.788 64.7462ZM341.971 74.2017C342.991 75.9932 343.946 77.8146 344.833 79.6654L342.128 80.9627C341.272 79.1765 340.35 77.4176 339.364 75.6861L341.971 74.2017ZM346.916 84.3669C347.691 86.271 348.397 88.2041 349.03 90.1658L346.175 91.0875C345.565 89.1973 344.885 87.334 344.138 85.498L346.916 84.3669ZM350.457 95.1106C350.964 97.0962 351.398 99.1091 351.757 101.149L348.803 101.67C348.456 99.7041 348.038 97.7648 347.55 95.8518L350.457 95.1106ZM352.493 106.245C352.722 108.27 352.879 110.32 352.963 112.394L349.965 112.514C349.885 110.512 349.733 108.535 349.512 106.582L352.493 106.245ZM353.018 117.524C352.999 118.553 352.962 119.588 352.907 120.629L349.912 120.471C349.965 119.465 350 118.464 350.018 117.469L353.018 117.524ZM352.907 120.629C352.854 121.651 352.795 122.659 352.732 123.654L349.738 123.463C349.801 122.48 349.858 121.483 349.912 120.471L352.907 120.629ZM352.362 128.656C352.186 130.724 351.987 132.731 351.762 134.68L348.782 134.336C349.003 132.42 349.2 130.443 349.373 128.402L352.362 128.656ZM351.111 139.669C350.81 141.73 350.475 143.723 350.106 145.652L347.16 145.088C347.52 143.205 347.847 141.256 348.143 139.235L351.111 139.669ZM349.05 150.594C348.569 152.624 348.042 154.581 347.467 156.47L344.597 155.596C345.152 153.771 345.663 151.875 346.131 149.901L349.05 150.594ZM345.84 161.293C345.113 163.245 344.326 165.121 343.475 166.931L340.76 165.655C341.574 163.923 342.329 162.123 343.028 160.246L345.84 161.293ZM341.129 171.47C340.114 173.264 339.026 174.99 337.861 176.659L335.401 174.942C336.512 173.35 337.55 171.704 338.519 169.992L341.129 171.47ZM334.777 180.733C333.494 182.299 332.135 183.816 330.697 185.295L328.546 183.203C329.928 181.782 331.23 180.329 332.456 178.832L334.777 180.733ZM327.033 188.827C325.558 190.165 324.011 191.476 322.39 192.769L320.519 190.424C322.095 189.167 323.593 187.897 325.018 186.605L327.033 188.827ZM318.371 195.831C316.78 196.992 315.125 198.144 313.404 199.293L311.738 196.798C313.428 195.669 315.049 194.541 316.603 193.407L318.371 195.831ZM309.172 202.034C308.33 202.564 307.474 203.095 306.603 203.627L305.039 201.067C305.899 200.541 306.744 200.018 307.574 199.495L309.172 202.034ZM306.988 201.405C307.617 202.184 308.251 202.967 308.891 203.753L306.564 205.647C305.921 204.857 305.285 204.071 304.653 203.289L306.988 201.405ZM312.081 207.649C313.351 209.188 314.639 210.739 315.946 212.299L313.647 214.226C312.335 212.66 311.041 211.103 309.766 209.557L312.081 207.649ZM319.198 216.153C320.492 217.677 321.802 219.208 323.129 220.745L320.858 222.705C319.526 221.162 318.21 219.624 316.911 218.095L319.198 216.153ZM326.433 224.548C327.753 226.056 329.086 227.568 330.434 229.084L328.192 231.077C326.839 229.556 325.5 228.037 324.175 226.523L326.433 224.548ZM333.793 232.836C335.137 234.326 336.493 235.818 337.861 237.31L335.65 239.338C334.276 237.839 332.914 236.341 331.565 234.845L333.793 232.836ZM341.279 241.012C342.646 242.482 344.025 243.952 345.415 245.42L343.236 247.483C341.84 246.008 340.455 244.532 339.082 243.055L341.279 241.012ZM348.892 249.066C350.285 250.516 351.687 251.963 353.099 253.406L350.955 255.504C349.537 254.055 348.127 252.601 346.728 251.145L348.892 249.066ZM356.637 256.992C358.056 258.419 359.484 259.841 360.919 261.256L358.813 263.393C357.37 261.97 355.935 260.541 354.51 259.107L356.637 256.992ZM364.52 264.777C365.967 266.179 367.42 267.574 368.881 268.96L366.816 271.136C365.347 269.742 363.886 268.34 362.432 266.931L364.52 264.777ZM372.549 272.409C374.024 273.783 375.506 275.148 376.993 276.502L374.974 278.72C373.477 277.358 371.987 275.986 370.504 274.604L372.549 272.409ZM380.732 279.871C381.484 280.542 382.237 281.21 382.992 281.874L381.008 284.126C380.249 283.457 379.491 282.785 378.735 282.11L380.732 279.871ZM381.118 284.213C380.554 283.804 379.802 283.272 378.867 282.62L380.583 280.16C381.523 280.815 382.294 281.36 382.882 281.787L381.118 284.213ZM375.055 279.983C374.338 279.489 373.573 278.962 372.759 278.403L374.46 275.931C375.273 276.491 376.039 277.018 376.757 277.513L375.055 279.983ZM372.759 278.403C371.987 277.871 371.172 277.31 370.315 276.721L372.017 274.25C372.873 274.839 373.687 275.4 374.46 275.931L372.759 278.403ZM366.214 273.892C364.677 272.831 363.043 271.699 361.317 270.5L363.029 268.036C364.752 269.234 366.384 270.363 367.919 271.424L366.214 273.892ZM357.235 267.658C355.667 266.563 354.037 265.422 352.348 264.235L354.073 261.78C355.759 262.965 357.387 264.105 358.952 265.198L357.235 267.658ZM348.274 261.364C346.696 260.249 345.074 259.099 343.41 257.915L345.149 255.471C346.811 256.653 348.43 257.801 350.005 258.914L348.274 261.364ZM339.366 255.029C337.781 253.895 336.162 252.733 334.511 251.543L336.265 249.109C337.914 250.297 339.53 251.457 341.112 252.589L339.366 255.029ZM330.488 248.634C328.904 247.486 327.292 246.314 325.656 245.118L327.425 242.696C329.059 243.889 330.667 245.059 332.249 246.206L330.488 248.634ZM321.648 242.183C320.068 241.023 318.467 239.842 316.845 238.642L318.63 236.23C320.249 237.429 321.847 238.607 323.424 239.765L321.648 242.183ZM312.847 235.675C311.273 234.503 309.68 233.313 308.071 232.106L309.871 229.706C311.478 230.911 313.067 232.098 314.639 233.269L312.847 235.675ZM304.097 229.116C302.525 227.93 300.938 226.728 299.336 225.51L301.152 223.122C302.751 224.337 304.335 225.537 305.905 226.722L304.097 229.116ZM295.38 222.492C293.815 221.295 292.239 220.084 290.651 218.86L292.482 216.484C294.068 217.706 295.641 218.915 297.203 220.109L295.38 222.492ZM286.717 215.817C285.933 215.209 285.146 214.597 284.356 213.981L286.2 211.615C286.988 212.229 287.773 212.84 288.556 213.447L286.717 215.817ZM285.833 214.192C284.885 214.569 283.927 214.938 282.959 215.298L281.913 212.486C282.86 212.134 283.796 211.773 284.723 211.404L285.833 214.192ZM278.115 217C276.192 217.637 274.233 218.242 272.235 218.815L271.408 215.932C273.367 215.369 275.288 214.776 277.172 214.152L278.115 217ZM267.284 220.151C265.325 220.647 263.33 221.114 261.301 221.553L260.668 218.62C262.663 218.189 264.623 217.73 266.548 217.243L267.284 220.151ZM256.282 222.565C254.297 222.937 252.28 223.283 250.231 223.604L249.768 220.64C251.788 220.324 253.774 219.983 255.728 219.616L256.282 222.565ZM245.169 224.333C243.168 224.598 241.138 224.839 239.077 225.056L238.762 222.073C240.797 221.858 242.802 221.62 244.776 221.359L245.169 224.333ZM233.991 225.54C231.98 225.71 229.942 225.86 227.877 225.988L227.691 222.994C229.735 222.867 231.75 222.719 233.737 222.55L233.991 225.54ZM222.778 226.258C220.764 226.347 218.724 226.417 216.658 226.467L216.585 223.468C218.632 223.418 220.652 223.349 222.645 223.261L222.778 226.258ZM211.556 226.551C210.541 226.56 209.521 226.565 208.494 226.565V223.565C209.512 223.565 210.524 223.56 211.529 223.551L211.556 226.551ZM208.634 226.558C207.618 226.653 206.605 226.745 205.594 226.833L205.334 223.844C206.338 223.757 207.345 223.666 208.354 223.571L208.634 226.558ZM200.544 227.245C198.51 227.399 196.487 227.539 194.476 227.665L194.289 224.671C196.287 224.546 198.296 224.407 200.317 224.253L200.544 227.245ZM189.417 227.952C187.378 228.055 185.35 228.144 183.336 228.218L183.225 225.22C185.226 225.147 187.239 225.059 189.264 224.956L189.417 227.952ZM178.261 228.374C176.219 228.425 174.191 228.46 172.175 228.48L172.146 225.48C174.146 225.46 176.16 225.425 178.187 225.375L178.261 228.374ZM167.101 228.499C165.057 228.493 163.028 228.472 161.014 228.435L161.069 225.435C163.067 225.472 165.081 225.493 167.109 225.499L167.101 228.499ZM155.942 228.308C153.898 228.244 151.87 228.163 149.858 228.066L150.002 225.069C151.997 225.166 154.009 225.246 156.037 225.31L155.942 228.308ZM144.792 227.786C142.749 227.659 140.723 227.514 138.716 227.353L138.956 224.363C140.945 224.522 142.953 224.665 144.979 224.792L144.792 227.786ZM133.661 226.91C131.62 226.715 129.6 226.503 127.6 226.274L127.941 223.294C129.922 223.521 131.924 223.731 133.946 223.924L133.661 226.91ZM122.56 225.655C120.526 225.388 118.514 225.103 116.524 224.8L116.975 221.834C118.944 222.134 120.936 222.416 122.951 222.681L122.56 225.655ZM111.508 223.991C109.483 223.646 107.483 223.282 105.509 222.899L106.079 219.954C108.032 220.332 110.01 220.692 112.013 221.034L111.508 223.991ZM100.528 221.883C98.5178 221.452 96.5356 221.002 94.5819 220.532L95.2837 217.615C97.2126 218.079 99.1705 218.524 101.157 218.95L100.528 221.883ZM89.6512 219.288C87.6587 218.762 85.6981 218.216 83.7701 217.648L84.6169 214.77C86.5174 215.33 88.451 215.869 90.4169 216.388L89.6512 219.288ZM78.9015 216.15C76.9341 215.518 75.0034 214.863 73.1101 214.186L74.1197 211.361C75.982 212.027 77.8823 212.671 79.8199 213.294L78.9015 216.15ZM68.3378 212.404C66.4093 211.651 64.5233 210.875 62.6807 210.076L63.8745 207.324C65.6819 208.108 67.5334 208.87 69.4281 209.609L68.3378 212.404ZM58.0284 207.965C56.1536 207.076 54.3285 206.16 52.5546 205.22L53.9595 202.569C55.693 203.488 57.4785 204.384 59.3146 205.255L58.0284 207.965ZM48.082 202.734C47.1918 202.215 46.3162 201.689 45.4552 201.156L47.0337 198.605C47.8721 199.123 48.7253 199.636 49.5934 200.142L48.082 202.734ZM45.4552 201.156C44.5609 200.602 43.6825 200.042 42.8199 199.474L44.4691 196.968C45.3081 197.52 46.1629 198.066 47.0337 198.605L45.4552 201.156ZM38.5428 196.509C36.8331 195.26 35.1922 193.981 33.6179 192.673L35.5353 190.365C37.0608 191.633 38.6523 192.874 40.3123 194.086L38.5428 196.509ZM29.6961 189.227C28.1453 187.787 26.6676 186.315 25.2606 184.813L27.4498 182.762C28.8091 184.212 30.2375 185.636 31.738 187.03L29.6961 189.227ZM21.8098 180.903C20.4608 179.278 19.187 177.623 17.9855 175.939L20.4276 174.197C21.5866 175.821 22.8156 177.418 24.1178 178.986L21.8098 180.903ZM15.0838 171.595C13.9706 169.812 12.9315 168.001 11.9632 166.164L14.6173 164.765C15.5519 166.539 16.5546 168.287 17.6285 170.006L15.0838 171.595ZM9.6698 161.476C8.80685 159.571 8.01373 157.642 7.2868 155.689L10.0982 154.642C10.8018 156.532 11.5687 158.398 12.4025 160.238L9.6698 161.476ZM5.60349 150.757C4.98492 148.769 4.4295 146.762 3.93359 144.735L6.84756 144.022C7.32932 145.99 7.86835 147.939 8.46793 149.865L5.60349 150.757ZM2.81979 139.655C2.42407 137.62 2.08365 135.569 1.79504 133.504L4.76617 133.089C5.0477 135.103 5.37946 137.102 5.76462 139.082L2.81979 139.655ZM1.18304 128.349C0.980743 126.292 0.825928 124.223 0.71524 122.143L3.711 121.984C3.8194 124.02 3.97092 126.045 4.16864 128.055L1.18304 128.349ZM0.529236 116.964C0.509521 115.93 0.499847 114.894 0.499847 113.857H3.49985C3.49985 114.876 3.50934 115.892 3.52869 116.906L0.529236 116.964Z" fill="black"/>
</svg>
