<svg viewBox="0 0 412 290" fill="none" xmlns="http://www.w3.org/2000/svg">
<path fill-rule="evenodd" clip-rule="evenodd" d="M34.6919 41.3569C17.6271 41.3569 -6.85712 68.4633 11.9768 87.5002C-2.14891 94.7527 -2.14923 119.229 17.6271 127.388C-1.25797 135.892 4.9267 161.521 24.2193 163.649C17.6271 194.471 52.7601 202.34 83.5495 194.471C77.9955 222.49 149.591 227.186 165.419 211.934C182.288 226.696 216.794 225.22 230.597 211.934C251.3 223.006 275.054 219.824 286.967 204.443C311.519 207.753 321.555 202.652 332.171 179.967C354.461 186.326 378.546 157.851 368.327 142.881C385.661 136.946 383.04 101.263 362.865 96.366C377.049 87.5661 368.327 50.8014 350.838 54.4058C357.203 41.7905 336.984 13.1647 320.005 24.3682C314.517 7.90939 282.187 2.12172 270.016 13.1647C258.236 -1.9231 214.536 -1.51865 205.977 13.1647C192.265 -0.304762 151.926 0.908684 144.763 13.1647C125.874 -0.304762 93.9395 4.54902 83.5495 22.2301C67.047 9.80728 34.6919 22.2301 34.6919 41.3569ZM341.777 244.77C360.233 242.238 372.587 234.055 371.017 222.716C369.01 208.221 355.099 204.705 332.789 209.431C314.333 211.964 300.319 220.861 301.889 232.2C303.459 243.54 323.32 247.302 341.777 244.77ZM396.065 255.971C397.002 262.732 387.613 267.889 373.788 269.786C359.963 271.683 345.22 269.837 344.284 263.075C343.348 256.314 353.99 250.695 367.815 248.798C384.561 245.507 394.869 247.328 396.065 255.971ZM397.202 287.903C390.561 288.511 385.55 286.251 385.107 281.451C384.54 275.316 389.072 272.628 397.244 272.578C403.885 271.97 409.535 274.375 409.979 279.175C410.422 283.975 403.842 287.295 397.202 287.903Z" fill="white"/>
<path d="M11.9768 87.5002L12.662 88.8345C13.0871 88.6163 13.3828 88.2084 13.4581 87.7365C13.5334 87.2645 13.3793 86.7849 13.0432 86.4452L11.9768 87.5002ZM34.6919 41.3569V42.8569C35.5204 42.8569 36.1919 42.1853 36.1919 41.3569H34.6919ZM17.6271 127.388L18.243 128.755C18.789 128.51 19.1364 127.962 19.1269 127.364C19.1174 126.765 18.7527 126.229 18.1991 126.001L17.6271 127.388ZM24.2193 163.649L25.6862 163.963C25.7749 163.548 25.6839 163.115 25.4357 162.771C25.1875 162.427 24.8054 162.205 24.3838 162.158L24.2193 163.649ZM83.5495 194.471L85.0209 194.763C85.1211 194.257 84.9549 193.736 84.5809 193.382C84.2068 193.028 83.6772 192.89 83.1781 193.018L83.5495 194.471ZM165.419 211.934L166.407 210.805C165.82 210.292 164.939 210.313 164.378 210.854L165.419 211.934ZM230.597 211.934L231.304 210.611C230.731 210.305 230.025 210.402 229.556 210.853L230.597 211.934ZM286.967 204.443L287.168 202.956C286.637 202.885 286.109 203.101 285.782 203.524L286.967 204.443ZM332.171 179.967L332.583 178.524C331.875 178.322 331.125 178.664 330.813 179.331L332.171 179.967ZM368.327 142.881L367.841 141.462C367.398 141.614 367.051 141.964 366.904 142.408C366.756 142.853 366.824 143.34 367.088 143.727L368.327 142.881ZM362.865 96.366L362.074 95.0914C361.56 95.4101 361.288 96.006 361.383 96.6029C361.479 97.1998 361.923 97.6811 362.511 97.8237L362.865 96.366ZM350.838 54.4058L349.499 53.7301C349.239 54.2439 349.297 54.8607 349.647 55.3176C349.997 55.7746 350.577 55.9911 351.141 55.8749L350.838 54.4058ZM320.005 24.3682L318.582 24.8427C318.729 25.285 319.074 25.6336 319.514 25.7859C319.955 25.9382 320.442 25.877 320.831 25.6202L320.005 24.3682ZM270.016 13.1647L268.834 14.0878C269.09 14.4165 269.472 14.6236 269.888 14.6592C270.303 14.6948 270.715 14.5558 271.024 14.2756L270.016 13.1647ZM205.977 13.1647L204.926 14.2348C205.256 14.5591 205.717 14.7129 206.176 14.6514C206.635 14.5899 207.04 14.32 207.273 13.92L205.977 13.1647ZM144.763 13.1647L143.892 14.386C144.235 14.6306 144.666 14.7197 145.078 14.6313C145.49 14.543 145.846 14.2854 146.058 13.9216L144.763 13.1647ZM83.5495 22.2301L82.6474 23.4285C82.989 23.6856 83.424 23.7848 83.8433 23.7011C84.2626 23.6173 84.6262 23.3587 84.8428 22.9901L83.5495 22.2301ZM371.017 222.716L372.503 222.51L371.017 222.716ZM341.777 244.77L341.98 246.256L341.777 244.77ZM332.789 209.431L332.993 210.917C333.029 210.912 333.065 210.906 333.1 210.899L332.789 209.431ZM301.889 232.2L300.403 232.406L301.889 232.2ZM373.788 269.786L373.992 271.272L373.788 269.786ZM396.065 255.971L394.579 256.176L396.065 255.971ZM344.284 263.075L345.77 262.87L344.284 263.075ZM367.815 248.798L368.019 250.284C368.048 250.28 368.076 250.275 368.104 250.27L367.815 248.798ZM385.107 281.451L386.6 281.313L385.107 281.451ZM397.202 287.903L397.065 286.409L397.202 287.903ZM397.244 272.578L397.253 274.078C397.296 274.077 397.338 274.075 397.381 274.072L397.244 272.578ZM409.979 279.175L411.473 279.037L409.979 279.175ZM13.0432 86.4452C8.5958 81.9499 6.76039 77.0512 6.68055 72.2342C6.60012 67.3817 8.3019 62.4962 11.1332 58.1022C13.9633 53.7101 17.88 49.8774 22.108 47.1502C26.3502 44.4139 30.7998 42.8569 34.6919 42.8569V39.8569C30.0516 39.8569 25.0414 41.6882 20.4819 44.6292C15.9082 47.5793 11.6813 51.713 8.61143 56.4772C5.54286 61.2394 3.5884 66.6999 3.68096 72.2839C3.7741 77.9035 5.9409 83.532 10.9105 88.5551L13.0432 86.4452ZM18.1991 126.001C-0.599729 118.246 -0.132793 95.4037 12.662 88.8345L11.2917 86.1658C-4.16503 94.1017 -3.69874 120.212 17.055 128.774L18.1991 126.001ZM24.3838 162.158C15.4297 161.17 9.55084 154.752 8.0756 147.606C6.61132 140.513 9.48169 132.701 18.243 128.755L17.0112 126.02C6.88742 130.579 3.4076 139.833 5.13756 148.213C6.85655 156.539 13.7163 163.999 24.0548 165.14L24.3838 162.158ZM83.1781 193.018C67.9758 196.903 51.8475 196.856 40.4348 192.181C34.7507 189.853 30.3186 186.414 27.6789 181.826C25.0493 177.256 24.1004 171.377 25.6862 163.963L22.7525 163.335C21.0421 171.332 22.0128 177.995 25.0787 183.323C28.1345 188.633 33.174 192.449 39.2978 194.957C51.5009 199.956 68.3338 199.908 83.921 195.924L83.1781 193.018ZM164.378 210.854C160.777 214.324 153.738 216.838 144.956 218.095C136.254 219.341 126.139 219.31 116.68 217.945C107.197 216.575 98.5231 213.885 92.608 209.919C86.7399 205.985 83.7895 200.975 85.0209 194.763L82.0782 194.179C80.5326 201.977 84.4488 208.061 90.9374 212.411C97.379 216.73 106.552 219.514 116.252 220.914C125.976 222.318 136.38 222.353 145.381 221.065C154.301 219.788 162.147 217.17 166.46 213.014L164.378 210.854ZM229.556 210.853C223.034 217.132 211.392 220.771 199.136 220.952C186.9 221.134 174.469 217.86 166.407 210.805L164.431 213.063C173.238 220.77 186.495 224.14 199.18 223.952C211.845 223.765 224.357 220.023 231.637 213.015L229.556 210.853ZM285.782 203.524C274.435 218.173 251.55 221.439 231.304 210.611L229.889 213.257C251.05 224.573 275.673 221.474 288.153 205.361L285.782 203.524ZM330.813 179.331C325.543 190.591 320.553 197.168 314.087 200.631C307.614 204.096 299.367 204.601 287.168 202.956L286.767 205.929C299.119 207.595 308.166 207.204 315.503 203.276C322.846 199.344 328.183 192.027 333.53 180.602L330.813 179.331ZM367.088 143.727C369.341 147.027 369.763 151.145 368.668 155.522C367.571 159.908 364.966 164.456 361.335 168.408C354.033 176.355 342.99 181.493 332.583 178.524L331.76 181.409C343.642 184.799 355.787 178.88 363.544 170.437C367.444 166.194 370.337 161.214 371.579 156.25C372.822 151.276 372.423 146.221 369.566 142.036L367.088 143.727ZM362.511 97.8237C371.723 100.06 377.19 109.432 378.169 119.381C379.154 129.397 375.512 138.836 367.841 141.462L368.813 144.301C378.476 140.992 382.19 129.621 381.154 119.087C380.112 108.487 374.181 97.5691 363.218 94.9083L362.511 97.8237ZM351.141 55.8749C354.906 55.0989 358.239 56.4546 361.025 59.2609C363.844 62.0995 366.027 66.3701 367.278 71.1166C368.527 75.8541 368.81 80.9309 367.957 85.3029C367.1 89.6869 365.144 93.1868 362.074 95.0914L363.655 97.6406C367.678 95.1452 369.95 90.7495 370.901 85.8779C371.855 80.9941 371.524 75.4551 370.179 70.352C368.837 65.2579 366.447 60.4631 363.154 57.1471C359.83 53.7987 355.514 51.9105 350.535 52.9367L351.141 55.8749ZM320.831 25.6202C324.666 23.0897 328.639 22.8092 332.434 23.993C336.279 25.1928 339.978 27.9167 343.044 31.4397C346.105 34.9566 348.455 39.1795 349.655 43.24C350.865 47.3335 350.85 51.0524 349.499 53.7301L352.177 55.0815C354.009 51.4515 353.853 46.8615 352.532 42.3897C351.2 37.885 348.628 33.2862 345.307 29.4702C341.991 25.6603 337.849 22.5399 333.327 21.1291C328.754 19.7024 323.833 20.045 319.178 23.1162L320.831 25.6202ZM271.024 14.2756C273.782 11.7732 277.776 10.1485 282.421 9.42404C287.052 8.70164 292.224 8.89241 297.213 9.92231C307.317 12.0079 316.093 17.3798 318.582 24.8427L321.428 23.8938C318.428 14.8978 308.295 9.1465 297.82 6.98424C292.52 5.89025 286.984 5.67597 281.958 6.45988C276.946 7.2417 272.336 9.03467 269.008 12.0538L271.024 14.2756ZM207.273 13.92C209.147 10.7042 213.08 8.08645 218.421 6.26841C223.719 4.46475 230.185 3.52532 236.794 3.5005C243.401 3.4757 250.078 4.36516 255.793 6.16538C261.536 7.97432 266.151 10.6523 268.834 14.0878L271.198 12.2416C267.991 8.13314 262.726 5.20379 256.694 3.30397C250.635 1.39545 243.644 0.47477 236.783 0.500526C229.925 0.526272 223.124 1.49808 217.454 3.42845C211.825 5.34444 207.086 8.28351 204.681 12.4093L207.273 13.92ZM146.058 13.9216C147.568 11.3378 150.997 9.11585 155.885 7.52653C160.713 5.95701 166.699 5.09202 172.932 5.01753C179.161 4.9431 185.572 5.65893 191.24 7.20584C196.929 8.75839 201.75 11.115 204.926 14.2348L207.028 12.0946C203.348 8.47964 197.985 5.93689 192.03 4.31168C186.054 2.68083 179.361 1.9405 172.896 2.01775C166.436 2.09495 160.137 2.98947 154.958 4.67355C149.839 6.33783 145.54 8.86358 143.468 12.4078L146.058 13.9216ZM84.8428 22.9901C89.7334 14.6675 99.8256 9.1978 111.191 7.49947C122.535 5.8043 134.828 7.92238 143.892 14.386L145.634 11.9434C135.809 4.93754 122.69 2.74779 110.748 4.53242C98.8258 6.31389 87.7557 12.1116 82.2563 21.4702L84.8428 22.9901ZM36.1919 41.3569C36.1919 32.7009 43.5741 25.2071 53.4754 21.3606C63.3368 17.5296 74.9534 17.6366 82.6474 23.4285L84.4517 21.0317C75.6431 14.4008 62.8309 14.5078 52.3891 18.5642C41.9873 22.6051 33.1919 30.8861 33.1919 41.3569H36.1919ZM369.531 222.922C370.219 227.892 367.915 232.277 363.025 235.832C358.096 239.415 350.661 242.037 341.573 243.284L341.98 246.256C351.349 244.971 359.318 242.235 364.789 238.259C370.297 234.255 373.384 228.879 372.503 222.51L369.531 222.922ZM333.1 210.899C344.174 208.552 352.916 208.315 359.056 210.293C362.097 211.273 364.465 212.785 366.188 214.828C367.91 216.869 369.061 219.529 369.531 222.922L372.503 222.51C371.969 218.656 370.629 215.44 368.481 212.893C366.334 210.348 363.453 208.558 359.977 207.438C353.082 205.216 343.714 205.583 332.479 207.964L333.1 210.899ZM303.374 231.995C302.696 227.095 305.329 222.521 310.693 218.739C316.054 214.959 323.922 212.162 332.993 210.917L332.586 207.945C323.2 209.233 314.832 212.15 308.965 216.287C303.1 220.422 299.511 225.967 300.403 232.406L303.374 231.995ZM341.573 243.284C332.488 244.53 323.12 244.215 315.896 242.24C308.557 240.234 304.028 236.716 303.374 231.995L300.403 232.406C301.319 239.024 307.506 243.057 315.105 245.134C322.817 247.242 332.609 247.542 341.98 246.256L341.573 243.284ZM373.992 271.272C381.01 270.309 387.035 268.505 391.233 265.989C395.4 263.493 398.142 260.03 397.551 255.765L394.579 256.176C394.925 258.673 393.441 261.169 389.691 263.416C385.973 265.643 380.391 267.366 373.584 268.3L373.992 271.272ZM342.798 263.281C343.112 265.551 344.581 267.27 346.543 268.511C348.492 269.744 351.056 270.597 353.918 271.15C359.654 272.259 366.968 272.236 373.992 271.272L373.584 268.3C366.783 269.233 359.813 269.235 354.487 268.205C351.818 267.689 349.657 266.931 348.147 265.975C346.648 265.028 345.923 263.98 345.77 262.87L342.798 263.281ZM367.611 247.312C360.578 248.277 354.255 250.199 349.759 252.816C345.358 255.379 342.198 258.946 342.798 263.281L345.77 262.87C345.434 260.443 347.127 257.82 351.269 255.409C355.317 253.052 361.227 251.216 368.019 250.284L367.611 247.312ZM397.551 255.765C397.21 253.301 396.201 251.246 394.538 249.657C392.894 248.085 390.7 247.052 388.112 246.448C382.976 245.25 375.958 245.669 367.526 247.326L368.104 250.27C376.418 248.636 382.927 248.319 387.43 249.37C389.662 249.89 391.316 250.727 392.465 251.825C393.594 252.905 394.322 254.319 394.579 256.176L397.551 255.765ZM383.613 281.589C383.888 284.571 385.618 286.753 388.149 288.042C390.622 289.301 393.844 289.716 397.338 289.397L397.065 286.409C393.918 286.697 391.315 286.287 389.511 285.368C387.766 284.48 386.768 283.132 386.6 281.313L383.613 281.589ZM397.235 271.078C393.044 271.103 389.499 271.796 387.043 273.5C384.45 275.298 383.288 278.066 383.613 281.589L386.6 281.313C386.359 278.7 387.179 277.057 388.753 275.965C390.464 274.778 393.272 274.102 397.253 274.078L397.235 271.078ZM411.473 279.037C411.191 275.988 409.235 273.793 406.595 272.501C403.986 271.224 400.62 270.762 397.107 271.084L397.381 274.072C400.508 273.785 403.289 274.223 405.276 275.196C407.233 276.154 408.323 277.562 408.485 279.313L411.473 279.037ZM397.338 289.397C400.832 289.077 404.376 288.042 407.039 286.384C409.671 284.746 411.77 282.261 411.473 279.037L408.485 279.313C408.631 280.889 407.661 282.464 405.454 283.837C403.278 285.192 400.212 286.121 397.065 286.409L397.338 289.397Z" fill="black"/>
</svg>
