<svg width="410" height="290" viewBox="0 0 410 290" fill="none" xmlns="http://www.w3.org/2000/svg">
<path fill-rule="evenodd" clip-rule="evenodd" d="M356.859 224.912C396.391 201.207 408.288 165.872 408.288 128.007C408.288 81.4165 373.425 40.6023 315.852 17.8453C287.927 6.80746 255.118 2 217.422 2C102.006 2 -2.40009 51.8645 2.14298 135.547C5.04612 189.022 19.8714 207.711 59.9901 230.505C67.5036 234.774 75.7014 238.442 84.63 241.511C66.6705 256.176 43.0135 273.413 17.5471 288C18.8486 287.385 21.271 286.301 24.6566 284.787C38.5514 278.57 68.6689 265.095 104.094 246.989C122.714 251.185 144.002 253.282 168.264 253.282C250.069 260.713 317.297 248.636 356.859 224.912Z" fill="white"/>
<path d="M356.859 224.912L356.087 223.626L356.859 224.912ZM315.852 17.8453L316.404 16.4503L315.852 17.8453ZM2.14298 135.547L0.645188 135.628L2.14298 135.547ZM59.9901 230.505L60.7311 229.201L59.9901 230.505ZM84.63 241.511L85.5788 242.673C86.0004 242.329 86.2024 241.783 86.1066 241.247C86.0108 240.711 85.6323 240.269 85.1175 240.092L84.63 241.511ZM17.5471 288L16.8016 286.698C16.1027 287.099 15.8447 287.98 16.2172 288.694C16.5897 289.408 17.4597 289.7 18.1879 289.356L17.5471 288ZM24.6566 284.787L25.2692 286.156H25.2692L24.6566 284.787ZM104.094 246.989L104.424 245.525C104.082 245.448 103.724 245.493 103.411 245.653L104.094 246.989ZM168.264 253.282L168.4 251.789C168.355 251.784 168.309 251.782 168.264 251.782V253.282ZM406.788 128.007C406.788 165.512 395.04 200.268 356.087 223.626L357.63 226.199C397.741 202.146 409.788 166.232 409.788 128.007H406.788ZM315.301 19.2403C372.551 41.8696 406.788 82.2626 406.788 128.007H409.788C409.788 80.5704 374.3 39.3349 316.404 16.4503L315.301 19.2403ZM217.422 3.5C255.001 3.5 287.607 8.29384 315.301 19.2403L316.404 16.4503C288.248 5.32108 255.236 0.5 217.422 0.5V3.5ZM3.64078 135.465C1.41053 94.3849 25.879 61.4505 65.5442 38.6936C105.221 15.9302 159.901 3.5 217.422 3.5V0.5C159.526 0.5 104.296 13.0021 64.0513 36.0914C23.7953 59.1873 -1.66765 93.0263 0.645188 135.628L3.64078 135.465ZM60.7311 229.201C40.7331 217.838 27.2579 207.615 18.3744 193.723C9.49309 179.834 5.08648 162.095 3.64078 135.465L0.645188 135.628C2.10263 162.474 6.56022 180.816 15.847 195.339C25.1316 209.859 39.1284 220.377 59.2491 231.809L60.7311 229.201ZM85.1175 240.092C76.2698 237.052 68.1577 233.42 60.7311 229.201L59.2491 231.809C66.8495 236.127 75.133 239.833 84.1425 242.93L85.1175 240.092ZM18.2927 289.302C43.8465 274.665 67.5716 257.377 85.5788 242.673L83.6813 240.349C65.7694 254.976 42.1804 272.162 16.8016 286.698L18.2927 289.302ZM24.044 283.417C20.6676 284.928 18.2258 286.02 16.9063 286.644L18.1879 289.356C19.4714 288.75 21.8744 287.675 25.2692 286.156L24.044 283.417ZM103.411 245.653C68.0224 263.741 37.9342 277.203 24.044 283.417L25.2692 286.156C39.1687 279.937 69.3154 266.449 104.777 248.324L103.411 245.653ZM168.264 251.782C144.085 251.782 122.911 249.692 104.424 245.525L103.764 248.452C122.516 252.678 143.919 254.782 168.264 254.782V251.782ZM356.087 223.626C316.908 247.12 250.046 259.204 168.4 251.789L168.128 254.776C250.093 262.221 317.686 250.152 357.63 226.199L356.087 223.626Z" fill="black"/>
</svg>
